<svg xmlns="http://www.w3.org/2000/svg" xml:space="preserve" width="48" height="32" viewBox="0 0 48 32">
  <path d="M46.6 4.01v24c0 1.44-1.16 2.6-2.6 2.6H4c-1.43 0-2.6-1.16-2.6-2.6v-24c0-1.43 1.17-2.6 2.6-2.6h40c1.44 0 2.6 1.17 2.6 2.6"/>
  <path d="M15.236 19.074a.6.6 0 0 1-.269.47L9.73 22.603a.56.56 0 0 1-.538 0l-5.237-3.06a.61.61 0 0 1-.27-.47v-6.126a.6.6 0 0 1 .27-.47L9.192 9.42a.56.56 0 0 1 .538 0l5.237 3.059c.147.09.269.296.269.47zM39.623 13.393v1.13H41.3v4.848h1.327v-4.849h1.686v-1.13zM18.315 14.522H20v4.849h1.327v-4.849h1.678v-1.13h-4.691zM36.585 13.203c-1.475 0-2.298.957-2.298 2.333v3.835H35.6v-3.868c0-.601.35-1.063 1.002-1.063.643 0 .993.544.993 1.063v3.868h1.312v-3.834c0-1.377-.847-2.334-2.321-2.334M31.624 13.393h1.32v5.978h-1.32zM28.57 16.534l-.041.338-.065-.338-1.075-3.141h-.424l-1.067 3.141-.065.338-.05-.338-.797-3.141H23.69l1.678 5.978h.537l1.23-3.34.04-.264.05.264 1.23 3.34h.537l1.678-5.978h-1.295z" fill="#fff"/>
  <radialGradient id="357__SVGID_1_twint" cx="-679.569" cy="332.466" r="1.331" gradientTransform="matrix(4.74162 0 0 -5.40028 3231.308 1809.106)" gradientUnits="userSpaceOnUse">
    <stop offset="0" stop-color="#fc0"/>
    <stop offset=".092" stop-color="#ffc800"/>
    <stop offset=".174" stop-color="#ffbd00"/>
    <stop offset=".253" stop-color="#ffab00"/>
    <stop offset=".33" stop-color="#ff9100"/>
    <stop offset=".405" stop-color="#ff7000"/>
    <stop offset=".479" stop-color="#ff4700"/>
    <stop offset=".55" stop-color="#ff1800"/>
    <stop offset=".582" stop-color="red"/>
    <stop offset="1" stop-color="red"/>
  </radialGradient>
  <path d="m12.181 16.031-1.36 2.029-.7-1.089.806-1.22c.147-.215.472-.816.098-1.633a1.69 1.69 0 0 0-1.523-.98c-.57 0-1.198.296-1.524.98a1.6 1.6 0 0 0 .09 1.608l.823 1.229.61.89.913 1.41c.008.008.155.23.407.23.244 0 .391-.222.415-.246l2.143-3.208zm-2.68.05s-.358-.553-.586-.932c-.252-.412.033-1.023.587-1.023.562 0 .838.61.586 1.023a27 27 0 0 1-.586.932" fill="url(#357__SVGID_1_twint)"/>
  <radialGradient id="357__SVGID_00000130609242956418108190000018139006904796765370_twint" cx="-663.256" cy="345.499" r="1.331" gradientTransform="matrix(4.34768 0 0 -6.67006 2888.873 2318.564)" gradientUnits="userSpaceOnUse">
    <stop offset="0" stop-color="#00b4e6"/>
    <stop offset=".201" stop-color="#00b0e3"/>
    <stop offset=".39" stop-color="#01a5db"/>
    <stop offset=".574" stop-color="#0292cd"/>
    <stop offset=".755" stop-color="#0377ba"/>
    <stop offset=".932" stop-color="#0455a1"/>
    <stop offset="1" stop-color="#054696"/>
  </radialGradient>
  <path d="m8.182 17.994-1.344-1.905s-.358-.553-.586-.932c-.253-.412.032-1.022.586-1.022q.11 0 .196.024l.472-.874c-.22-.09-.448-.14-.668-.14-.57 0-1.197.297-1.523.981a1.6 1.6 0 0 0 .09 1.608l2.345 3.521c.017.033.171.256.416.256.252 0 .39-.215.415-.248l.709-1.088-.611-.907z" fill="url(#357__SVGID_00000130609242956418108190000018139006904796765370_twint)"/>
  <path d="M44 .01H4c-2.21 0-4 1.79-4 4v24c0 2.21 1.79 4 4 4h40c2.21 0 4-1.79 4-4v-24c0-2.21-1.79-4-4-4m2.6 28c0 1.44-1.16 2.6-2.6 2.6H4c-1.43 0-2.6-1.16-2.6-2.6v-24c0-1.43 1.17-2.6 2.6-2.6h40c1.44 0 2.6 1.17 2.6 2.6z" fill="#ddd"/>
</svg>